# xmcd
#
# Track frame offsets:
#	187
#	14192
#	28087
#	41102
#	57007
#	74787
#	92097
#	107985
#	119250
#	130635
#	150387
#	165432
#	181740
#	196640
#	213620
#	226397
#
# Disc length: 3174 seconds
#
# Revision: 1
# Processed by: cddbd v1.5.1PL0 Copyright (c) Steve Scherf et al.
# Submitted via: CDex 1.50Beta5
#
DISCID=da0c6410
DTITLE=廃盤ベスト 09 - 廃盤ベスト 09
DYEAR=1900
DGENRE=Pop
TTITLE0=桜田淳子/わたしの青い鳥
TTITLE1=麻丘めぐみ/わたしの彼は左きき
TTITLE2=荒木一郎/空に星があるように
TTITLE3=三田明/美しい十代
TTITLE4=吉永小百合・和田弘とマヒナ・スターズ/寒い朝
TTITLE5=佐良直美/世界は二人のために
TTITLE6=渡辺マリ/東京ドドンパ娘
TTITLE7=三田明/ごめんねチコちゃん
TTITLE8=中尾ミエ/かわいいベイビー
TTITLE9=田中星児/ビューティフル・サンデー
TTITLE10=チェリッシュ/なのにあなたは京都へゆくの
TTITLE11=久保浩/霧の中の少女
TTITLE12=アン真理子/悲しみは駆け足でやってくる
TTITLE13=高石友也/受験生ブルース
TTITLE14=チェリッシュ/若草の髪かざり
TTITLE15=ソルティー・シュガー/走れコータロー
EXTD=
EXTT0=
EXTT1=
EXTT2=
EXTT3=
EXTT4=
EXTT5=
EXTT6=
EXTT7=
EXTT8=
EXTT9=
EXTT10=
EXTT11=
EXTT12=
EXTT13=
EXTT14=
EXTT15=
PLAYORDER=
